<svg xmlns="http://www.w3.org/2000/svg" viewBox="0 0 1500 514.8"><path d="M101.6 259.7v-64.6c-8.1-2.1-16-4-23.8-6.1-15.1-4-29.9-8.8-44-15.5-7.6-3.6-15-7.7-21.2-13.6-3.4-3.2-6.7-6.9-9-10.9-5.2-9-4.8-18.3 1.2-26.8 2.7-3.8 6.1-7.3 9.7-10.3 8.4-7 18.3-11.5 28.4-15.6C59.2 89.5 76 84.8 92.7 79.8c3-.9 5.9-1.9 9-2.9v-5.1c0-19 0-38 .1-57 0-2.6.2-5.2.6-7.7.6-4.4 2.9-6.6 7.1-7.1 4.2-.5 8.3 1.4 9.6 5.3.9 2.5 1.3 5.3 1.3 7.9.4 18.2.6 36.4.9 54.6 0 1.1.1 2.2.2 3.2.4.1.6.3.8.3 7.7-2.6 15.4-5.1 23.1-7.9 7.2-2.6 12.3-7.4 14.5-14.8 4.9-16.4 17.3-23.9 32.9-27.3 7.7-1.7 15.5-2.7 23.4-1 8.9 1.8 13.1 7.7 11.5 16.5-2 11.2-6.8 21.2-13.9 29.9-6.4 7.9-15.2 11.7-25.1 12.8-9.8 1.1-19 4.1-28.2 7.5-11.1 4-22.3 7.6-33.5 11.4-1.8.6-3.5 1.3-5.5 2-.3 23.6-.6 47-.9 70.7 4.1 1.1 7.8 2.1 11.6 3.1 10.7 2.9 21.4 6.1 31.6 10.6 6.7 3 13 6.6 18.3 11.9 10.2 10.2 12.5 22.8 6.3 35.8-4.2 8.8-10.4 16-18.2 21.6-6.6 4.7-13.6 8.8-20.7 12.9-8.1 4.7-16.4 9-24.7 13.3-2.2 1.2-3 2.6-3 5.1.2 22.4.2 44.8.2 67.2 0 2.3.8 3.7 2.7 4.9 6.1 3.8 11.9 8 18.1 11.7 8.9 5.4 12.9 13.6 14.4 23.4 1.9 12.3-1.3 23.7-7.1 34.4-4.6 8.6-10.6 16.1-17.8 22.6-6.4 5.8-13.2 11.3-19.8 17-4.4 3.8-8.8 7.7-13 11.7-5.9 5.8-8.9 12.8-8.4 21.2.3 4.2.2 8.4-1.6 12.4-1.3 3-2.3 3.3-5.4 2.1-3.2-1.2-5-3.8-5.8-6.9-1-3.9-1.8-7.9-2.3-12-1.9-15.9 2.4-29.5 14.6-40.3 3-2.6 5.9-5.3 8.9-7.8 1.8-1.5 2.5-3.3 2.5-5.7-.1-20.1-.2-40.2-.2-60.3 0-3.2-1-5.1-4-6.6-8-3.9-16-8.1-23.8-12.5-8.2-4.6-15.7-10.2-22.3-17-5.9-6.1-10.8-13-12.6-21.5-2.7-12.5 0-23.7 8.7-33.2 6.3-6.9 14.1-11.9 22.4-16 8.6-4.3 17.4-8.2 26.1-12.3 1.9-.4 3.6-1.4 5.3-2.2zm-.1-93.5v-59.9c-.9.1-1.7.1-2.4.4-14.2 4.4-28.4 9.1-41.6 16.1-3.4 1.8-6.7 4.2-9.5 6.8-5.9 5.6-5.7 11.6.5 16.7 3.3 2.7 7.1 4.9 11 6.9 8.1 4.1 16.8 6.7 25.6 9 5.3 1.3 10.7 2.6 16.4 4zm.2 123.7c-1.2.3-1.7.4-2.1.6-8.7 3.6-16.9 8.1-24.2 13.9-1.8 1.4-3.4 3.2-4.7 5-4.9 6.9-4.6 13.2 1.2 19.5 8.1 8.9 19.1 13.5 29.9 18.8-.1-19.4-.1-38.3-.1-57.8zm19-89.3c.2 17.3.5 34 .7 50.8 9-2.6 23.6-11.3 29.2-17.3 1.3-1.4 2.4-3 3.3-4.6 2.6-4.6 2.3-9.3-1.2-13.2-2.2-2.5-4.9-4.8-7.8-6.3-5.8-2.9-11.9-5.3-17.9-7.8-1.8-.7-3.8-1-6.3-1.6zm.4 229.7c5.3-4.9 10.1-9.3 12.8-15.3 1.7-3.8 2-7.9 1.3-12-1.4-7.9-6.8-12.4-14.1-16.4v43.7zm203.3-217.6h-47.7L266 242.9h17.1v15.4h-49.5v-15.4h14.8l45.4-120.7h26.3l43.8 120.7h17.7v15.4h-66.8v-15.4h20.1l-10.5-30.2zm-42.7-13.8h38l-18.1-53.2h-.8l-19.1 53.2zm208-60.6l25.1 92.5h1.6l27.3-92.5h-17.1v-15.2h49.5v15.4h-14.8l-39.1 120.7h-25.9l-23.2-82-28.8 82h-25.7l-37-120.7h-18.1v-15.4h66.4v15.2h-19.3l26.7 92.7h1.6l26.9-77.7-4.3-15h-17.3v-15.2h66.6v15.2h-21.1zm96.4 104.6h19.3V138.5h-19.3v-15.4h59.8L678 216h.8l31.6-92.9h58.8v15.4h-20.3v104.4h20.3v15.4h-64.3v-15.4h17.5V141.2h-1.8l-41.7 117.2h-12.1L624 141.2h-2v101.7h18.3v15.4H586v-15.4zm195.4 0h21V138.5h-21v-15.4h120.9V170h-13.2c-7.6-26.9-11.7-31.7-28.2-31.7h-32v46.5h10.5c13.6 0 15.8-2.5 18.5-20.1h13.2v55.1H858c-2.3-18.5-4.9-21.2-18.5-21.2H829V243h24v15.4h-71.5v-15.5z" fill="#007a8c"/><path d="M255.9 342.3H245v15.9h-5v-44.9h16.8c10.1 0 16.8 5.4 16.8 14.3 0 9.7-8.1 14.7-17.7 14.7zm.5-24.4H245v19.8h11.1c7.4 0 12.3-4 12.3-9.9.1-6.5-4.8-9.9-12-9.9zm40.4 41c-9.9 0-17.2-7.8-17.2-17.3 0-9.4 7.3-17.4 17.3-17.4 9.9 0 17.3 7.8 17.3 17.3s-7.4 17.4-17.4 17.4zm0-30.3c-7.2 0-12.1 5.7-12.1 12.9s5.3 13 12.3 13c7.2 0 12.2-5.7 12.2-12.8-.1-7.3-5.4-13.1-12.4-13.1zm31.3 29.6h-4.9V325h4.9v8.7c2.4-5.5 7.3-9.5 13.5-9.2v5.3h-.4c-7.3 0-13.2 5.2-13.2 15.2v13.2zm27.7-9.5c0 4 2.2 5.5 5.6 5.5 1.7 0 3.1-.3 4.8-1.2v4.2c-1.7.9-3.6 1.4-6 1.4-5.3 0-9.4-2.6-9.4-9.4v-20h-4.6V325h4.6v-10h4.9v10h10.5v4.4h-10.5v19.3zm21.1-17.4l-1.5-4c3.7-1.7 7.3-2.8 12.1-2.8 9.1 0 14.1 4.6 14.1 13.4v20.3h-4.7v-5c-2.3 3-6.2 5.7-12 5.7-6.2 0-12.4-3.5-12.4-10.4 0-7.1 5.8-10.8 14.2-10.8 4.2 0 7.3.6 10.2 1.4V338c0-6-3.7-9.1-9.9-9.1-3.9 0-7 1-10.1 2.4zm.6 17c0 4.2 3.9 6.7 8.3 6.7 6.1 0 11.1-3.7 11.1-9v-3.2c-2.4-.7-5.7-1.4-9.8-1.4-6.1 0-9.6 2.6-9.6 6.9zm35.1 9.9v-46.9h4.9v46.9h-4.9zm62.3 0v-6.7c-2.7 4-6.6 7.4-12.7 7.4-8 0-15.9-6.3-15.9-17.3 0-10.9 7.9-17.3 15.9-17.3 6.2 0 10.1 3.3 12.7 7.1v-20h4.9v46.9h-4.9zm-11.8-29.5c-6.4 0-11.7 4.8-11.7 12.8 0 7.9 5.4 12.9 11.7 12.9 6.2 0 12-5.1 12-12.9 0-7.7-5.8-12.8-12-12.8zm42.4 25.9c4.6 0 7.8-1.9 10.5-4.7l3.1 2.8c-3.3 3.7-7.4 6.2-13.7 6.2-9.1 0-16.6-7-16.6-17.3 0-9.6 6.7-17.3 15.9-17.3 9.8 0 15.5 7.8 15.5 17.6 0 .4 0 1-.1 1.5h-26.3c.8 7.2 5.9 11.2 11.7 11.2zm9.7-14.9c-.5-6-4-11.3-10.6-11.3-5.8 0-10.1 4.8-10.8 11.3h21.4zm18.6 18.5h-4.9V325h4.9v8.7c2.4-5.5 7.3-9.5 13.5-9.2v5.3h-.3c-7.3 0-13.2 5.2-13.2 15.2v13.2zm73.5-6.6L616 325h5.1l-11.7 33.4h-4.3l-8.9-26.2-9 26.2h-4.4L571.3 325h5.3l8.7 26.6 8.9-26.8h4.1l9 26.8zm22.2-33.9v-5.5h5.7v5.5h-5.7zm.3 40.5V325h4.9v33.2h-4.9zm27.4.6c-4.7 0-10-1.9-13.7-4.9l2.5-3.5c3.6 2.7 7.6 4.2 11.5 4.2 4 0 6.9-2.1 6.9-5.3v-.1c0-3.3-3.9-4.6-8.3-5.8-5.2-1.5-11-3.3-11-9.4v-.1c0-5.7 4.8-9.5 11.3-9.5 4 0 8.5 1.4 11.9 3.7l-2.2 3.7c-3.1-2-6.6-3.2-9.8-3.2-3.9 0-6.4 2.1-6.4 4.8v.1c0 3.1 4.1 4.4 8.5 5.7 5.1 1.5 10.7 3.5 10.7 9.5v.1c-.1 6.4-5.3 10-11.9 10zm31.3 0c-4.7 0-10-1.9-13.7-4.9l2.5-3.5c3.6 2.7 7.6 4.2 11.5 4.2 4 0 6.9-2.1 6.9-5.3v-.1c0-3.3-3.9-4.6-8.3-5.8-5.2-1.5-11-3.3-11-9.4v-.1c0-5.7 4.8-9.5 11.3-9.5 4 0 8.5 1.4 11.9 3.7l-2.2 3.7c-3.1-2-6.6-3.2-9.8-3.2-3.9 0-6.4 2.1-6.4 4.8v.1c0 3.1 4.1 4.4 8.5 5.7 5.1 1.5 10.7 3.5 10.7 9.5v.1c-.1 6.4-5.3 10-11.9 10zm35.7-4.2c4.6 0 7.8-1.9 10.5-4.7l3.1 2.8c-3.3 3.7-7.4 6.2-13.7 6.2-9.1 0-16.6-7-16.6-17.3 0-9.6 6.7-17.3 15.9-17.3 9.8 0 15.5 7.8 15.5 17.6 0 .4 0 1-.1 1.5h-26.3c.7 7.2 5.8 11.2 11.7 11.2zm9.6-14.9c-.5-6-4-11.3-10.6-11.3-5.8 0-10.1 4.8-10.8 11.3h21.4zm18.6 18.5h-4.9V325h4.9v5.8c2.2-3.6 5.6-6.5 11.4-6.5 8 0 12.7 5.4 12.7 13.3v20.6h-4.9v-19.4c0-6.2-3.3-10-9.2-10-5.7 0-9.9 4.2-9.9 10.4v19zm45.6.6c-4.7 0-10-1.9-13.7-4.9l2.5-3.5c3.6 2.7 7.6 4.2 11.5 4.2 4 0 6.9-2.1 6.9-5.3v-.1c0-3.3-3.9-4.6-8.3-5.8-5.2-1.5-11-3.3-11-9.4v-.1c0-5.7 4.8-9.5 11.3-9.5 4 0 8.5 1.4 11.9 3.7l-2.2 3.7c-3.1-2-6.6-3.2-9.8-3.2-3.9 0-6.4 2.1-6.4 4.8v.1c0 3.1 4.1 4.4 8.5 5.7 5.1 1.5 10.7 3.5 10.7 9.5v.1c-.1 6.4-5.3 10-11.9 10zm35.9.1c-9.7 0-17-7.9-17-17.3s7.3-17.4 17-17.4c6.3 0 10.2 2.6 13.3 5.9l-3.3 3.5c-2.6-2.8-5.6-5-10.1-5-6.7 0-11.9 5.7-11.9 12.9 0 7.3 5.3 13 12.2 13 4.2 0 7.5-2.1 10.1-4.9l3.1 3c-3.2 3.7-7.1 6.3-13.4 6.3zm26.7-.7h-4.9v-46.9h4.9v19.5c2.2-3.6 5.6-6.5 11.4-6.5 8 0 12.7 5.4 12.7 13.3v20.6h-4.9v-19.4c0-6.2-3.3-10-9.2-10-5.7 0-9.9 4.2-9.9 10.4v19zm36.5-26.9l-1.5-4c3.7-1.7 7.3-2.8 12.1-2.8 9.1 0 14.1 4.6 14.1 13.4v20.3H917v-5c-2.3 3-6.2 5.7-12 5.7-6.2 0-12.4-3.5-12.4-10.4 0-7.1 5.8-10.8 14.2-10.8 4.2 0 7.3.6 10.2 1.4V338c0-6-3.7-9.1-9.9-9.1-3.9 0-7 1-10 2.4zm.5 17c0 4.2 3.9 6.7 8.3 6.7 6.1 0 11.1-3.7 11.1-9v-3.2c-2.4-.7-5.7-1.4-9.8-1.4-6.1 0-9.6 2.6-9.6 6.9zm52-23.2v4.2h-10.5v28.8h-4.9v-28.8h-4.6V325h4.6v-2.9c0-7.3 3.7-11.1 10-11.1 2.3 0 3.9.3 5.5.8v4.3c-1.8-.5-3.1-.8-4.8-.8-3.9 0-5.8 2.3-5.8 7.1v2.7h10.5zm12.9 23.6c0 4 2.2 5.5 5.6 5.5 1.7 0 3.1-.3 4.8-1.2v4.2c-1.7.9-3.6 1.4-6 1.4-5.3 0-9.4-2.6-9.4-9.4v-20H953V325h4.6v-10h4.9v10H973v4.4h-10.5v19.3zm19.7 9.5v-46.9h4.9v46.9h-4.9zm16.6-40.5v-5.5h5.6v5.5h-5.6zm.3 40.5V325h4.9v33.2h-4.9zm31.4.7c-9.7 0-17-7.9-17-17.3s7.3-17.4 17-17.4c6.3 0 10.2 2.6 13.3 5.9l-3.3 3.5c-2.6-2.8-5.6-5-10.1-5-6.7 0-11.9 5.7-11.9 12.9 0 7.3 5.3 13 12.2 13 4.2 0 7.5-2.1 10.1-4.9l3.1 3c-3.2 3.7-7.2 6.3-13.4 6.3zm26.6-.7h-4.9v-46.9h4.9v19.5c2.2-3.6 5.6-6.5 11.4-6.5 8 0 12.7 5.4 12.7 13.3v20.6h-4.9v-19.4c0-6.2-3.3-10-9.2-10-5.7 0-9.9 4.2-9.9 10.4v19zm49.2-3.6c4.6 0 7.8-1.9 10.5-4.7l3.1 2.8c-3.3 3.7-7.4 6.2-13.7 6.2-9.1 0-16.6-7-16.6-17.3 0-9.6 6.7-17.3 15.9-17.3 9.8 0 15.5 7.8 15.5 17.6 0 .4 0 1-.1 1.5h-26.3c.7 7.2 5.9 11.2 11.7 11.2zm9.7-14.9c-.5-6-4-11.3-10.6-11.3-5.8 0-10.1 4.8-10.8 11.3h21.4zm18.6 18.5h-4.9V325h4.9v5.8c2.2-3.6 5.6-6.5 11.4-6.5 8 0 12.7 5.4 12.7 13.3v20.6h-4.9v-19.4c0-6.2-3.3-10-9.2-10-5.7 0-9.9 4.2-9.9 10.4v19zm76.2-12.4h-.3l-16.4-24v36.3h-4.9v-44.9h5.1l16.4 24.5 16.4-24.5h5.1v44.9h-5.1v-36.4l-16.3 24.1zm48 8.8c4.6 0 7.8-1.9 10.5-4.7l3.1 2.8c-3.3 3.7-7.4 6.2-13.7 6.2-9.1 0-16.6-7-16.6-17.3 0-9.6 6.7-17.3 15.9-17.3 9.8 0 15.5 7.8 15.5 17.6 0 .4 0 1-.1 1.5h-26.3c.7 7.2 5.8 11.2 11.7 11.2zm9.7-14.9c-.5-6-4-11.3-10.6-11.3-5.8 0-10.1 4.8-10.8 11.3h21.4zm40.3 18.5v-6.7c-2.7 4-6.6 7.4-12.7 7.4-8 0-15.9-6.3-15.9-17.3 0-10.9 7.9-17.3 15.9-17.3 6.2 0 10.1 3.3 12.7 7.1v-20h4.9v46.9h-4.9zm-11.8-29.5c-6.4 0-11.7 4.8-11.7 12.8 0 7.9 5.4 12.9 11.7 12.9 6.2 0 12-5.1 12-12.9 0-7.7-5.9-12.8-12-12.8zm27.9-11v-5.5h5.6v5.5h-5.6zm.3 40.5V325h4.9v33.2h-4.9zm15.2-29V325h28v3.1l-22.1 25.9h22.1v4.2h-28.8V355l22-25.9h-21.2zm37-11.5v-5.5h5.7v5.5h-5.7zm.3 40.5V325h4.9v33.2h-4.9zm21.4 0h-4.9V325h4.9v5.8c2.2-3.6 5.6-6.5 11.4-6.5 8 0 12.7 5.4 12.7 13.3v20.6h-4.9v-19.4c0-6.2-3.3-10-9.2-10-5.7 0-9.9 4.2-9.9 10.4v19zm-382.7-97.6c-29.9 0-51.7-23.5-51.7-51.9s22-52.3 52.1-52.3c29.9 0 51.9 23.5 51.9 51.9s-22.2 52.3-52.3 52.3zm0-91.1c-21.6 0-36.5 17.2-36.5 38.8 0 21.6 15.8 39 36.9 39 21.6 0 36.7-17.2 36.7-38.6 0-21.8-16-39.2-37.1-39.2zm89.9 88.8h-14.9v-99.8h14.9v17.4c6.6-10.8 17-19.5 34.2-19.5 24.1 0 38.2 16.2 38.2 39.9v61.9h-14.9V200c0-18.5-10-30.1-27.6-30.1-17.2 0-29.9 12.5-29.9 31.3v57.1zm101 0V117.4h14.9v140.9h-14.9zm43.9-121.6v-16.4h17v16.4h-17zm1 121.6v-99.8h14.9v99.8h-14.9zm59.1 0h-14.9v-99.8h14.9v17.4c6.6-10.8 17-19.5 34.2-19.5 24.1 0 38.2 16.2 38.2 39.9v61.9h-14.9V200c0-18.5-10-30.1-27.6-30.1-17.2 0-29.9 12.5-29.9 31.3v57.1zm144.5-10.7c13.7 0 23.4-5.6 31.5-14.1l9.3 8.3c-10 11.2-22.2 18.7-41.1 18.7-27.4 0-49.8-21-49.8-52.1 0-28.9 20.3-52.1 47.9-52.1 29.5 0 46.5 23.5 46.5 52.9 0 1.4 0 2.9-.2 4.6h-79.1c2 21.7 17.5 33.8 35 33.8zm29.2-44.7c-1.5-18.1-12-34-31.8-34-17.4 0-30.5 14.5-32.4 34h64.2z" fill="#32a037"/></svg>